<?xml version="1.0" standalone="no"?>
<!DOCTYPE svg PUBLIC "-//W3C//DTD SVG 20010904//EN"
 "http://www.w3.org/TR/2001/REC-SVG-20010904/DTD/svg10.dtd">
<svg version="1.0" xmlns="http://www.w3.org/2000/svg"
 width="512.000000pt" height="512.000000pt" viewBox="0 0 512.000000 512.000000"
 preserveAspectRatio="xMidYMid meet">
<metadata>
Created by potrace 1.14, written by Peter Selinger 2001-2017
</metadata>
<g transform="translate(0.000000,512.000000) scale(0.100000,-0.100000)"
fill="#000000" stroke="none">
<path d="M2515 4372 c-2 -2 -28 -6 -57 -8 -77 -6 -188 -21 -218 -29 -21 -6
-83 -17 -97 -18 -7 0 -13 -5 -13 -10 0 -5 -7 -7 -15 -3 -8 3 -15 1 -15 -4 0
-5 -6 -7 -14 -4 -8 3 -17 1 -20 -5 -4 -6 -13 -8 -20 -5 -8 3 -17 1 -20 -5 -4
-6 -26 -15 -48 -22 -57 -15 -205 -87 -307 -148 -46 -28 -88 -51 -93 -51 -5 0
-6 -4 -3 -10 3 -5 -1 -10 -9 -10 -9 0 -16 -4 -16 -10 0 -5 -5 -10 -12 -10 -33
0 -259 -223 -350 -345 -4 -5 -18 -23 -31 -40 -13 -16 -41 -59 -63 -95 -21 -36
-42 -66 -46 -68 -5 -2 -8 -8 -8 -13 0 -4 -18 -44 -39 -89 -22 -44 -45 -97 -51
-117 -7 -21 -18 -44 -24 -52 -6 -8 -10 -17 -9 -20 6 -13 -10 -71 -19 -71 -5 0
-8 -6 -7 -12 2 -10 -9 -70 -26 -138 -1 -3 -5 -30 -9 -60 -4 -30 -10 -68 -13
-85 -3 -16 -6 -69 -7 -117 0 -48 -5 -84 -10 -80 -5 3 -6 1 -3 -5 3 -5 9 -24
12 -42 4 -25 2 -31 -7 -25 -10 6 -10 5 -2 -7 7 -8 11 -25 10 -39 -1 -14 0 -29
3 -35 3 -5 6 -19 7 -30 1 -19 15 -110 20 -130 1 -5 5 -23 8 -40 3 -16 10 -45
15 -63 5 -18 10 -35 10 -37 1 -3 2 -7 2 -10 1 -3 3 -9 4 -15 1 -5 3 -11 5 -12
1 -2 3 -11 6 -20 7 -32 11 -43 22 -71 7 -16 12 -30 12 -33 0 -2 18 -43 40 -90
22 -47 40 -90 40 -94 0 -5 3 -10 8 -12 4 -1 27 -37 51 -78 25 -41 47 -77 51
-80 4 -3 17 -21 31 -41 59 -88 221 -258 312 -327 26 -20 47 -40 47 -44 0 -4 6
-8 13 -8 8 0 22 -9 32 -20 10 -11 23 -20 28 -20 6 0 25 -11 43 -25 18 -14 37
-25 43 -25 5 0 16 -6 23 -13 18 -16 141 -77 156 -77 7 0 11 -4 8 -9 -3 -4 4
-8 16 -7 21 1 22 6 23 95 0 88 -1 94 -22 104 -13 6 -23 14 -23 19 0 5 -4 7 -9
4 -5 -3 -43 17 -85 44 -42 28 -79 50 -83 50 -22 0 -323 275 -323 296 0 2 -9
15 -21 27 -34 36 -137 196 -151 233 -6 19 -16 34 -20 34 -4 0 -8 4 -8 10 0 5
-13 38 -29 72 -25 56 -42 98 -47 121 -1 4 -3 9 -4 12 -3 6 -4 11 -14 50 -4 17
-12 41 -16 55 -9 24 -18 69 -24 120 -2 14 -7 50 -11 80 -10 69 -12 300 -3 300
4 0 5 8 3 18 -4 21 29 212 46 267 7 22 13 42 14 45 1 3 4 12 7 20 3 8 14 38
23 65 34 95 130 281 161 313 8 7 14 17 14 22 0 5 6 15 13 22 6 7 28 34 47 58
63 82 159 181 225 232 17 12 39 31 50 41 11 10 42 32 70 50 27 17 52 34 55 37
10 10 45 30 73 41 15 6 27 15 27 20 0 5 3 8 8 7 7 -1 21 4 117 47 50 23 163
62 200 70 6 1 29 7 52 14 49 14 115 24 160 25 18 1 33 4 33 7 0 8 314 4 380
-4 78 -10 205 -38 250 -55 8 -3 21 -4 28 -3 6 1 12 -3 12 -9 0 -5 3 -9 8 -8
20 6 273 -106 280 -124 2 -4 8 -8 13 -8 10 0 133 -81 183 -122 33 -26 163
-146 180 -166 6 -7 20 -23 31 -35 100 -112 238 -340 261 -431 3 -14 10 -26 15
-26 5 0 8 -3 7 -7 -1 -5 10 -48 26 -98 38 -122 39 -126 41 -155 1 -14 5 -38 9
-55 15 -74 24 -265 12 -265 -5 0 -4 -6 1 -12 5 -7 8 -22 6 -33 -1 -11 -5 -47
-8 -79 -6 -79 -18 -151 -37 -221 -6 -22 -11 -44 -12 -50 -1 -5 -4 -14 -7 -20
-6 -9 -17 -49 -19 -67 -1 -7 -28 -69 -67 -158 -43 -95 -177 -300 -196 -300 -6
0 -8 -3 -5 -6 11 -10 -152 -176 -257 -262 -41 -33 -164 -110 -169 -105 -3 4
-6 2 -6 -4 0 -6 -13 -16 -29 -23 -16 -6 -32 -18 -34 -25 -7 -17 -8 -195 -1
-195 3 0 18 7 34 15 17 9 30 12 30 8 0 -5 5 -1 10 7 5 8 14 16 20 16 5 1 15 2
21 3 5 0 7 7 3 14 -4 6 -4 9 1 5 4 -4 14 -3 22 3 7 6 13 8 13 5 0 -4 7 0 16 9
9 9 23 14 31 11 8 -3 11 -2 8 3 -3 6 8 18 25 27 16 10 30 22 30 26 0 4 4 7 9
6 5 -2 23 9 40 25 17 15 35 27 40 27 6 0 17 10 25 22 9 12 16 19 16 16 0 -4
11 3 24 15 13 12 48 45 79 74 51 48 183 201 217 253 8 12 21 29 28 36 7 8 10
14 5 14 -4 0 -3 4 3 8 39 25 215 418 216 482 1 8 5 21 11 28 5 6 7 12 4 12 -3
0 1 23 8 52 8 28 12 55 9 60 -3 4 -2 8 3 8 4 0 9 12 10 28 4 73 10 132 14 136
5 6 2 226 -5 299 -4 47 -18 135 -30 192 -12 56 -20 87 -33 125 -8 25 -17 54
-19 65 -2 11 -8 29 -14 40 -10 20 -26 64 -29 77 -6 31 -141 273 -174 313 -4 6
-25 33 -45 60 -153 206 -380 393 -630 518 -51 26 -96 47 -100 48 -4 0 -22 7
-41 15 -18 8 -41 14 -50 14 -9 0 -21 4 -27 9 -17 16 -219 63 -332 77 -117 14
-290 23 -297 16z"/>
<path d="M2468 3804 c-3 -2 -36 -6 -74 -9 -120 -8 -164 -22 -237 -72 -102 -71
-150 -223 -125 -403 4 -30 10 -77 13 -105 4 -27 9 -66 13 -85 3 -19 6 -87 6
-151 1 -113 0 -116 -28 -153 -33 -44 -93 -74 -154 -77 -39 -3 -42 -5 -43 -31
-3 -92 -1 -115 14 -115 81 -2 151 -35 185 -86 25 -37 27 -49 27 -141 0 -56 -4
-123 -8 -151 -4 -27 -9 -63 -11 -80 -32 -222 -24 -335 27 -430 62 -113 176
-169 364 -178 52 -2 71 9 64 38 -2 6 -4 35 -4 65 -2 54 -3 55 -32 56 -86 1
-133 16 -172 52 -49 46 -67 101 -68 201 0 67 4 108 20 211 17 113 24 275 12
287 -4 3 -7 16 -7 28 0 29 -33 94 -66 129 -15 15 -50 39 -77 52 -41 19 -47 24
-31 29 40 13 89 41 112 65 30 31 61 97 65 139 2 17 6 33 8 36 8 7 -4 207 -16
265 -12 59 -16 93 -19 169 -9 202 55 281 231 284 l43 1 -2 78 c-1 51 -5 79
-14 82 -6 2 -14 3 -16 0z"/>
<path d="M2666 3733 c1 -37 2 -73 3 -80 1 -7 15 -11 34 -11 110 5 178 -30 215
-111 33 -71 34 -183 6 -356 -5 -27 -9 -108 -9 -180 0 -144 15 -193 74 -254 28
-28 91 -67 91 -56 0 3 6 0 14 -7 11 -10 4 -17 -38 -38 -118 -59 -158 -181
-132 -410 8 -70 18 -135 23 -144 13 -20 10 -222 -4 -261 -27 -81 -101 -129
-198 -129 -27 0 -52 -3 -55 -7 -3 -4 -5 -40 -5 -81 l1 -73 59 3 c119 6 130 7
136 14 3 5 17 9 32 10 15 1 27 6 27 11 0 4 4 6 9 2 5 -3 13 0 16 6 4 5 14 8
22 5 8 -3 11 -1 8 4 -3 6 -1 10 4 10 19 0 89 70 110 110 55 105 59 230 15 480
-7 43 -17 153 -17 195 0 112 40 175 129 201 29 8 59 14 66 13 32 -4 35 2 33
69 -2 37 -3 69 -4 72 0 3 -21 7 -46 8 -63 2 -120 34 -152 85 -25 39 -27 50
-26 142 1 114 6 185 13 185 3 0 5 12 6 28 0 15 4 65 9 112 19 186 -7 305 -87
391 -62 67 -150 99 -293 105 l-90 5 1 -68z"/>
<path d="M3270 1616 c0 -2 8 -10 18 -17 15 -13 16 -12 3 4 -13 16 -21 21 -21
13z"/>
<path d="M4900 1480 c-9 -6 -10 -10 -3 -10 6 0 15 5 18 10 8 12 4 12 -15 0z"/>
<path d="M3060 1440 c-9 -6 -10 -10 -3 -10 6 0 15 5 18 10 8 12 4 12 -15 0z"/>
<path d="M3975 1421 c-3 -5 -2 -12 3 -15 5 -3 9 1 9 9 0 17 -3 19 -12 6z"/>
<path d="M4970 1420 c0 -5 5 -10 11 -10 5 0 7 5 4 10 -3 6 -8 10 -11 10 -2 0
-4 -4 -4 -10z"/>
<path d="M3866 1402 c-3 -5 1 -9 9 -9 8 0 12 4 9 9 -3 4 -7 8 -9 8 -2 0 -6 -4
-9 -8z"/>
<path d="M1796 1322 c-3 -5 1 -9 9 -9 8 0 12 4 9 9 -3 4 -7 8 -9 8 -2 0 -6 -4
-9 -8z"/>
<path d="M5015 1300 c3 -5 8 -10 11 -10 2 0 4 5 4 10 0 6 -5 10 -11 10 -5 0
-7 -4 -4 -10z"/>
<path d="M2730 1200 c0 -5 5 -10 11 -10 5 0 7 5 4 10 -3 6 -8 10 -11 10 -2 0
-4 -4 -4 -10z"/>
<path d="M2673 1175 c0 -8 4 -12 9 -9 5 3 6 10 3 15 -9 13 -12 11 -12 -6z"/>
<path d="M1533 1149 c-2 -23 3 -25 10 -4 4 8 3 16 -1 19 -4 3 -9 -4 -9 -15z"/>
<path d="M1460 1126 c0 -2 8 -10 18 -17 15 -13 16 -12 3 4 -13 16 -21 21 -21
13z"/>
<path d="M1506 1122 c-3 -5 1 -9 9 -9 8 0 12 4 9 9 -3 4 -7 8 -9 8 -2 0 -6 -4
-9 -8z"/>
<path d="M2574 1123 c5 -9 0 -13 -14 -13 -12 0 -35 -8 -53 -17 -18 -9 -36 -16
-42 -14 -5 1 -7 -1 -2 -5 4 -4 1 -17 -6 -28 -33 -54 -11 -141 45 -175 34 -21
116 -23 140 -2 64 53 62 50 63 110 0 52 -3 62 -32 91 -18 18 -41 34 -52 35
-11 1 -27 8 -37 16 -11 9 -15 9 -10 2z"/>
<path d="M3756 953 c-6 -14 -5 -15 5 -6 7 7 10 15 7 18 -3 3 -9 -2 -12 -12z"/>
</g>
</svg>
